<svg width="400" height="400" viewBox="0 0 400 400" fill="none" xmlns="http://www.w3.org/2000/svg">
  <rect width="400" height="400" fill="#F3F4F6"/>
  <path d="M200 180C211.046 180 220 171.046 220 160C220 148.954 211.046 140 200 140C188.954 140 180 148.954 180 160C180 171.046 188.954 180 200 180Z" fill="#9CA3AF"/>
  <path fill-rule="evenodd" clip-rule="evenodd" d="M200 100C244.183 100 280 135.817 280 180C280 224.183 244.183 260 200 260C155.817 260 120 224.183 120 180C120 135.817 155.817 100 200 100ZM200 240C233.137 240 260 213.137 260 180C260 146.863 233.137 120 200 120C166.863 120 140 146.863 140 180C140 213.137 166.863 240 200 240Z" fill="#D1D5DB"/>
</svg>
